PathFileType  4	(X/Y/Z) C:\Users\antoi\Documents\MyRepositories\mobilecap\ResultsAnalysis
DataRate	CameraRate	NumFrames	NumMarkers	Units	OrigDataRate	OrigDataStartFrame	OrigNumFrames
100.0	100.0	6	51	mm	100.0	816	1631
Frame#	Time	r_knee			r_shank_antsup			r_ankle			r_calc			r_5meta			r_toe			L_knee			L_shank_antsup			L_ankle			L_calc			L_5meta			L_toe			r_sh2			r_sh3			r_sh4			L_sh2			L_sh3			r_thigh1			r_thigh2			r_thigh3			r_thigh4			r_thigh5			L_thigh1			L_thigh2			L_thigh3			L_thigh4			r.ASIS			r.PSIS			L.ASIS			L.PSIS			C7			R_Shoulder			L_Shoulder			R_Sternum			L_Sternum			R_humerus			R_elbow_med			R_elbow_lat			R_forearm			R_wrist_radius			R_wrist_ulna			L_humerus			L_elbow_med			L_elbow_lat			L_forearm			L_wrist_radius			L_wrist_ulna			R_HJC			L_HJC			R_HJC_reg			L_HJC_reg			
		X1	Y1	Z1	X2	Y2	Z2	X3	Y3	Z3	X4	Y4	Z4	X5	Y5	Z5	X6	Y6	Z6	X7	Y7	Z7	X8	Y8	Z8	X9	Y9	Z9	X10	Y10	Z10	X11	Y11	Z11	X12	Y12	Z12	X13	Y13	Z13	X14	Y14	Z14	X15	Y15	Z15	X16	Y16	Z16	X17	Y17	Z17	X18	Y18	Z18	X19	Y19	Z19	X20	Y20	Z20	X21	Y21	Z21	X22	Y22	Z22	X23	Y23	Z23	X24	Y24	Z24	X25	Y25	Z25	X26	Y26	Z26	X27	Y27	Z27	X28	Y28	Z28	X29	Y29	Z29	X30	Y30	Z30	X31	Y31	Z31	X32	Y32	Z32	X33	Y33	Z33	X34	Y34	Z34	X35	Y35	Z35	X36	Y36	Z36	X37	Y37	Z37	X38	Y38	Z38	X39	Y39	Z39	X40	Y40	Z40	X41	Y41	Z41	X42	Y42	Z42	X43	Y43	Z43	X44	Y44	Z44	X45	Y45	Z45	X46	Y46	Z46	X47	Y47	Z47	X48	Y48	Z48	X49	Y49	Z49	X50	Y50	Z50	X51	Y51	Z51	

816	8.15000000	-260.71825	542.12133	-470.22915	-242.07452	464.00443	-452.55762	-314.11470	105.67946	-472.82335	-372.87791	54.28192	-520.80034	-177.86635	37.91915	-423.75678	-138.55535	60.64023	-482.04777	-259.00262	539.77585	-768.21482	-236.42545	421.43400	-777.36137	-313.30379	96.30403	-744.71500	-379.99329	53.15537	-705.74154	-164.21022	32.87665	-789.87704	-136.13007	58.32473	-725.63973	-250.44525	351.02790	-443.21673	-317.48729	469.06590	-443.11529	-332.10507	354.43101	-440.43683	-323.76546	437.04904	-792.58404	-331.01921	316.32239	-789.08145	-210.64250	867.55545	-444.72121	-193.26390	756.55310	-452.53087	-244.86543	721.89605	-428.26518	-322.85018	844.50455	-444.96639	-298.03676	729.73829	-443.40201	-197.99183	866.32216	-796.21756	-187.68659	725.91608	-790.91497	-317.26835	851.30265	-810.88845	-296.62308	713.10225	-801.24195	-193.13656	1057.64995	-495.58846	-376.11935	1113.51591	-579.84183	-185.96054	1050.72426	-754.23990	-373.41796	1112.24265	-685.63540	-329.95572	1615.37718	-649.97489	-261.34974	1588.16472	-467.67476	-241.37373	1590.49089	-808.79828	-175.95827	1558.76900	-610.60009	-172.40533	1553.94929	-664.46211	-297.51678	1320.07869	-373.09414	-346.86269	1232.90969	-443.09732	-327.01569	1235.81795	-362.38925	-260.52897	1089.79720	-348.51979	-216.31481	982.08126	-358.38983	-259.42245	981.27241	-346.72976	-281.39989	1330.49913	-893.82893	-347.33612	1251.53604	-835.14291	-319.10264	1247.43917	-898.40420	-260.03558	1083.00236	-897.67818	-220.33148	994.10944	-878.05450	-256.60146	983.45614	-889.61591	-284.22587	987.37396	-503.76318	-274.92449	981.64902	-733.87192	-271.97679	987.25638	-533.45791	-267.61695	985.20105	-704.22671	
817	8.16000000	-259.69402	542.64601	-469.75725	-240.41220	463.78464	-452.28234	-314.07991	105.77843	-472.87478	-372.82666	54.34377	-520.75638	-177.86840	37.97948	-423.83703	-138.54436	60.65907	-482.13600	-258.09481	539.08256	-767.68039	-235.57417	421.03754	-777.42625	-313.22623	96.20409	-744.73205	-379.94937	53.17038	-705.87798	-164.22743	32.86129	-789.85947	-136.14109	58.26037	-725.58697	-249.47530	350.82932	-442.98278	-315.80814	469.04831	-443.14380	-331.01434	354.50550	-440.57710	-322.86208	436.89725	-792.71343	-330.38766	316.11974	-788.83987	-211.69520	867.43251	-445.02033	-193.48981	756.75745	-452.69708	-244.73464	721.71836	-428.35585	-323.79879	843.57964	-445.23530	-298.00540	729.08633	-443.54067	-199.25621	866.39217	-795.73966	-187.85078	726.00638	-790.95816	-318.28792	850.35794	-811.12114	-296.63710	712.36585	-801.67761	-195.87891	1057.21869	-495.79719	-378.47955	1113.33571	-580.50208	-188.19979	1050.27680	-754.14904	-375.71041	1112.14046	-686.23938	-328.33494	1615.37893	-650.10071	-260.24134	1587.65536	-467.70406	-239.89743	1589.64574	-808.89530	-174.86376	1557.57310	-610.60149	-171.29925	1552.71452	-664.43988	-297.60814	1319.84326	-373.05091	-347.40456	1232.84100	-442.83357	-327.62455	1235.58611	-362.23928	-261.24335	1089.50940	-348.55522	-217.11630	981.74433	-358.52946	-260.27763	981.00059	-346.78870	-281.54893	1330.12390	-894.29653	-347.82529	1251.16242	-835.38297	-319.78229	1247.39028	-899.22756	-260.29189	1082.75007	-897.92944	-220.32563	994.00816	-878.29194	-256.49125	983.28498	-890.05772	-287.09963	987.10191	-504.10307	-277.25272	981.33436	-734.18823	-274.58830	986.94262	-533.71750	-270.12091	985.01462	-704.29712	
818	8.17000000	-259.03445	543.74602	-469.10702	-238.57744	463.45059	-451.97401	-314.02182	105.90677	-472.92058	-372.82983	54.36207	-520.76682	-177.86490	37.99028	-423.93419	-138.54158	60.69380	-482.18882	-257.14641	538.47471	-767.49467	-234.64853	420.68254	-777.68054	-313.14199	96.07778	-744.71131	-379.87174	53.23348	-706.05414	-164.23867	32.86871	-789.84272	-136.13301	58.19555	-725.51331	-248.31987	350.65304	-442.62939	-313.86804	469.09502	-442.84937	-329.86219	354.57502	-440.66604	-321.95772	436.77531	-792.94107	-329.77554	316.00383	-788.69334	-212.77370	867.47205	-445.16066	-193.64023	756.92857	-452.83508	-244.61609	721.45959	-428.45010	-324.79068	842.43692	-445.55763	-297.92155	728.36660	-443.49995	-200.82413	866.11569	-795.55793	-188.05152	726.10539	-790.92543	-319.33291	849.46905	-811.46393	-296.62067	711.79768	-802.29852	-198.81857	1056.69784	-496.04957	-381.00706	1113.22960	-581.18914	-190.66110	1049.83311	-754.28497	-378.22021	1112.13873	-686.75917	-326.60262	1615.30750	-650.23328	-259.03118	1587.10163	-467.59245	-238.25703	1588.70182	-808.80024	-173.68863	1556.22650	-610.53788	-170.06398	1551.35565	-664.30187	-297.61025	1319.49513	-373.03890	-347.76829	1232.47620	-442.71583	-328.29065	1235.40790	-361.68344	-261.99477	1089.11980	-348.48680	-217.94112	981.33597	-358.58181	-261.12353	980.64339	-346.74232	-281.56183	1329.68864	-894.82221	-348.31745	1250.77838	-835.62428	-320.28082	1247.54270	-900.40278	-260.59604	1082.50608	-898.27247	-220.35668	993.81951	-878.64228	-256.45350	983.07017	-890.38804	-290.18381	986.79541	-504.54180	-279.89162	981.08698	-734.60910	-277.44436	986.57983	-534.03455	-272.94271	984.81848	-704.54652	
819	8.18000000	-257.38277	544.31745	-468.83137	-236.61946	463.01909	-451.70715	-313.92575	106.04505	-472.93845	-372.82124	54.34255	-520.87093	-177.85206	37.98118	-424.03089	-138.51862	60.74043	-482.20692	-255.79073	538.46548	-768.20556	-233.56577	420.36127	-778.14348	-313.07393	96.01496	-744.67497	-379.80222	53.28697	-706.16090	-164.26256	32.89635	-789.81428	-136.11032	58.21310	-725.47843	-246.86564	350.30230	-442.52081	-311.86275	469.18741	-442.61542	-328.61206	354.65295	-440.64789	-320.84246	436.67139	-793.17970	-329.13262	315.94202	-788.70728	-214.30746	867.53729	-445.41663	-193.96904	757.09841	-452.92861	-244.55965	721.07009	-428.60697	-325.97734	841.11385	-445.94280	-297.84789	727.39520	-443.52254	-201.84207	866.12313	-795.58321	-188.28770	726.24054	-790.77403	-320.44099	848.57296	-811.88298	-296.64865	711.16600	-802.76162	-201.98273	1055.97606	-496.41676	-383.82066	1113.10441	-581.68262	-193.38516	1049.32882	-754.38550	-380.88000	1112.08555	-687.32381	-324.74658	1615.14899	-650.52200	-257.61323	1586.25486	-467.74966	-236.39493	1587.68512	-808.67289	-172.41775	1554.69803	-610.52725	-168.72875	1549.82985	-664.09798	-297.60506	1318.98568	-372.99348	-348.32911	1231.93447	-442.60215	-328.85759	1235.14337	-361.13886	-262.74549	1088.60407	-348.42576	-218.84456	980.82936	-358.58755	-262.01060	980.08928	-346.73049	-281.48505	1329.10364	-895.15524	-348.79349	1250.32655	-835.91115	-320.67541	1247.63256	-901.48089	-260.93414	1082.24650	-898.77929	-220.42765	993.57018	-879.05144	-256.48544	982.75462	-890.63708	-293.52433	986.34493	-505.01306	-282.82907	980.80668	-735.06597	-280.69105	986.21799	-534.52580	-275.95019	984.57502	-704.86226	
820	8.19000000	-254.72294	544.01930	-468.89707	-234.51674	462.54486	-451.52051	-313.78505	106.17544	-472.88650	-372.80418	54.31691	-520.97612	-177.85204	37.99192	-424.09820	-138.49183	60.78259	-482.20107	-254.21582	538.44454	-768.85733	-232.35031	419.90066	-778.44302	-313.02766	96.06495	-744.72856	-379.80020	53.28914	-706.12019	-164.29291	32.93957	-789.78911	-136.11801	58.24186	-725.43989	-245.30224	349.88320	-442.61807	-309.91028	469.27720	-442.62235	-327.10557	354.81244	-440.42561	-319.54157	436.48220	-793.34833	-328.32796	315.81664	-788.86054	-216.27497	867.35161	-445.98858	-194.50165	757.30379	-453.08015	-244.58631	720.56845	-428.83729	-327.46418	839.78731	-446.19293	-297.91139	726.23217	-443.70746	-202.92928	866.26441	-795.38380	-188.52960	726.39377	-790.54935	-321.66259	847.54277	-812.20974	-296.70073	710.35751	-803.03987	-205.29187	1055.08344	-496.74248	-386.83321	1112.84208	-582.00063	-196.36662	1048.74509	-754.45297	-383.64866	1111.96223	-688.03376	-322.73917	1614.91487	-650.79370	-255.97527	1585.22533	-467.86770	-234.37398	1586.60945	-808.67292	-171.06011	1552.96545	-610.52044	-167.31821	1548.11408	-663.93144	-297.61121	1318.38453	-372.88981	-349.06810	1231.43326	-442.51420	-329.38409	1234.70417	-360.75545	-263.49607	1087.94860	-348.45956	-219.78833	980.17526	-358.69158	-262.95391	979.36678	-346.84842	-281.44505	1328.42875	-895.25160	-349.23671	1249.81709	-836.17595	-321.19511	1247.41378	-902.13506	-261.25350	1081.93182	-899.32163	-220.52099	993.37785	-879.55103	-256.55317	982.37577	-890.91396	-297.05524	985.74139	-505.49026	-285.96458	980.44543	-735.53011	-284.17987	985.64499	-535.08458	-279.07008	984.23219	-705.24414	
821	8.20000000	-252.15354	543.49358	-468.73274	-232.28458	462.14033	-451.27988	-313.61859	106.33763	-472.81357	-372.79428	54.32334	-521.01751	-177.86157	38.01443	-424.10549	-138.47061	60.84057	-482.18249	-252.78662	537.79785	-768.70114	-231.05569	419.23852	-778.41424	-312.98158	96.12201	-744.76489	-379.87292	53.24566	-705.96055	-164.31049	32.99468	-789.78616	-136.14785	58.28047	-725.39908	-243.81941	349.53355	-442.61363	-307.84188	469.27751	-442.64915	-325.38411	354.90673	-440.02169	-318.20540	436.26275	-793.52265	-327.39253	315.65127	-789.11444	-218.71242	867.05724	-446.83243	-195.16296	757.45937	-453.31908	-244.69783	720.02705	-429.08842	-329.20945	838.29057	-446.36842	-298.13410	724.99327	-443.90366	-205.50170	865.27473	-795.16617	-188.72116	726.52187	-790.31441	-322.99430	846.33665	-812.53222	-296.67583	709.38196	-803.30680	-208.59800	1054.04937	-496.85182	-389.94617	1112.47271	-582.32122	-199.55572	1048.08627	-754.65597	-386.56577	1111.83198	-688.57775	-320.59513	1614.54479	-650.89214	-254.22272	1584.12736	-467.75163	-232.28101	1585.36829	-808.73157	-169.62234	1551.02519	-610.47836	-165.83526	1546.19749	-663.82649	-297.61996	1317.67984	-372.73009	-349.85829	1231.07795	-442.41579	-329.95114	1234.10689	-360.45625	-264.26629	1087.18580	-348.46483	-220.74421	979.35261	-358.86966	-263.84012	978.61021	-346.88974	-281.41791	1327.78463	-895.39146	-349.72739	1249.27504	-836.36948	-321.89412	1246.88565	-902.41340	-261.53837	1081.51628	-899.72370	-220.59884	993.22676	-880.14031	-256.62537	981.99200	-891.31472	-300.65918	985.02183	-505.93310	-289.28553	980.03112	-735.96580	-287.75316	984.75844	-535.51752	-282.33736	983.73262	-705.72925	
